<?xml version="1.0" encoding="utf-8"?>
<!-- Generator: Adobe Illustrator 23.0.4, SVG Export Plug-In . SVG Version: 6.00 Build 0)  -->
<svg version="1.1" xmlns="http://www.w3.org/2000/svg" xmlns:xlink="http://www.w3.org/1999/xlink" x="0px" y="0px"
	 viewBox="0 0 1920 1080" style="enable-background:new 0 0 1920 1080;" xml:space="preserve">
<style type="text/css">
	.trim{fill:#FFFFFF;stroke:#000000;stroke-miterlimit:10;}
	.st0{stroke:#000000;stroke-width:3;stroke-linecap:round;stroke-miterlimit:10;}
	.st1{fill:#FFFFFF;}
	.st2{fill:none;}
	.st3{font-family:'HelveticaNeue';}
	.st4{font-size:12px;}
	.st5{fill:none;stroke:#000000;stroke-miterlimit:10;}
</style>
<g id="Lines">
	<line class="st0" x1="288.5" y1="144.5" x2="288.5" y2="180.5"/>
</g>
<g id="Trim">
	<g>
		<g>
			<rect x="216.5" y="72.5" class="st1" width="143" height="71"/>
			<path class="st1" d="M359,73v70H217V73H359 M360,72H216v72h144V72L360,72z"/>
		</g>
		<rect x="216" y="108" class="st2" width="144" height="9"/>
		<text id="Label_11_" transform="matrix(1 0 0 1 234.5586 116.5679)" class="st1 st3 st4">THIS IS THE LABEL</text>
	</g>
	<g>
		<g>
			<rect x="216.5" y="72.5" class="st1" width="143" height="71"/>
			<path d="M359,73v70H217V73H359 M360,72H216v72h144V72L360,72z"/>
		</g>
		<rect x="216" y="108" class="st2" width="144" height="9"/>
		<text id="Label_10_" transform="matrix(1 0 0 1 234.5586 116.5679)" class="st3 st4">THIS IS THE LABEL</text>
	</g>
	<g>
		<g>
			<path d="M358.5,73.5v69h-141v-69H358.5 M359.5,72.5h-143v71h143V72.5L359.5,72.5z"/>
			<path class="st5" d="M359,73v70H217V73H359 M360,72H216v72h144V72L360,72z"/>
		</g>
		<g id="Label_9_">
			<polygon points="241.43,108 234.58,108 234.58,108.96 237.44,108.96 237.44,116.57 238.58,116.57 238.58,108.96 241.43,108.96
				241.43,108 			"/>
			<polygon points="249.17,108 248.03,108 248.03,111.68 243.52,111.68 243.52,108 242.38,108 242.38,116.57 243.52,116.57
				243.52,112.64 248.03,112.64 248.03,116.57 249.17,116.57 249.17,108 			"/>
			<polygon points="252.23,108 251.09,108 251.09,116.57 252.23,116.57 252.23,108 			"/>
			<path d="M257.03,107.8c-0.39,0-0.77,0.05-1.15,0.15s-0.7,0.25-1,0.46c-0.29,0.2-0.53,0.46-0.7,0.78
				c-0.18,0.32-0.26,0.69-0.26,1.12c0,0.39,0.08,0.72,0.23,0.98c0.16,0.26,0.36,0.47,0.62,0.64c0.26,0.16,0.55,0.3,0.88,0.4
				c0.33,0.1,0.66,0.19,1,0.26c0.34,0.08,0.67,0.15,1,0.22c0.33,0.07,0.62,0.17,0.88,0.28c0.26,0.12,0.47,0.27,0.62,0.45
				c0.16,0.18,0.23,0.42,0.23,0.72c0,0.31-0.06,0.57-0.19,0.77c-0.13,0.2-0.3,0.36-0.5,0.47c-0.21,0.12-0.44,0.2-0.7,0.25
				c-0.26,0.05-0.52,0.07-0.77,0.07c-0.32,0-0.63-0.04-0.94-0.12c-0.3-0.08-0.57-0.2-0.8-0.37s-0.41-0.38-0.55-0.64
				c-0.14-0.26-0.21-0.57-0.21-0.93h-1.08c0,0.52,0.09,0.97,0.28,1.35c0.19,0.38,0.44,0.69,0.77,0.94c0.32,0.24,0.7,0.43,1.13,0.55
				c0.43,0.12,0.88,0.18,1.36,0.18c0.39,0,0.79-0.05,1.18-0.14c0.4-0.09,0.75-0.24,1.07-0.44c0.32-0.2,0.58-0.47,0.79-0.79
				c0.2-0.32,0.31-0.71,0.31-1.17c0-0.42-0.08-0.78-0.23-1.06c-0.16-0.28-0.36-0.51-0.62-0.7c-0.26-0.18-0.55-0.33-0.88-0.44
				s-0.66-0.2-1-0.28c-0.34-0.08-0.67-0.15-1-0.22s-0.62-0.15-0.88-0.26c-0.26-0.1-0.47-0.24-0.62-0.4
				c-0.16-0.16-0.23-0.38-0.23-0.64c0-0.28,0.05-0.51,0.16-0.7c0.11-0.19,0.25-0.34,0.43-0.45c0.18-0.11,0.39-0.19,0.62-0.24
				c0.23-0.05,0.47-0.07,0.71-0.07c0.59,0,1.08,0.14,1.46,0.41c0.38,0.28,0.6,0.72,0.67,1.34h1.08c-0.02-0.47-0.11-0.88-0.27-1.22
				c-0.16-0.34-0.39-0.62-0.67-0.85c-0.28-0.22-0.61-0.39-0.99-0.49C257.88,107.85,257.47,107.8,257.03,107.8L257.03,107.8z"/>
			<polygon points="266.45,108 265.31,108 265.31,116.57 266.45,116.57 266.45,108 			"/>
			<path d="M271.25,107.8c-0.39,0-0.77,0.05-1.15,0.15s-0.7,0.25-1,0.46c-0.29,0.2-0.53,0.46-0.7,0.78
				c-0.18,0.32-0.26,0.69-0.26,1.12c0,0.39,0.08,0.72,0.23,0.98c0.16,0.26,0.36,0.47,0.62,0.64c0.26,0.16,0.55,0.3,0.88,0.4
				c0.33,0.1,0.66,0.19,1,0.26c0.34,0.08,0.67,0.15,1,0.22c0.33,0.07,0.62,0.17,0.88,0.28c0.26,0.12,0.47,0.27,0.62,0.45
				c0.16,0.18,0.23,0.42,0.23,0.72c0,0.31-0.06,0.57-0.19,0.77c-0.13,0.2-0.3,0.36-0.5,0.47c-0.21,0.12-0.44,0.2-0.7,0.25
				c-0.26,0.05-0.52,0.07-0.77,0.07c-0.32,0-0.63-0.04-0.94-0.12c-0.3-0.08-0.57-0.2-0.8-0.37s-0.41-0.38-0.55-0.64
				c-0.14-0.26-0.21-0.57-0.21-0.93h-1.08c0,0.52,0.09,0.97,0.28,1.35c0.19,0.38,0.44,0.69,0.77,0.94c0.32,0.24,0.7,0.43,1.13,0.55
				c0.43,0.12,0.88,0.18,1.36,0.18c0.39,0,0.79-0.05,1.18-0.14c0.4-0.09,0.75-0.24,1.07-0.44c0.32-0.2,0.58-0.47,0.79-0.79
				c0.2-0.32,0.31-0.71,0.31-1.17c0-0.42-0.08-0.78-0.23-1.06c-0.16-0.28-0.36-0.51-0.62-0.7c-0.26-0.18-0.55-0.33-0.88-0.44
				s-0.66-0.2-1-0.28c-0.34-0.08-0.67-0.15-1-0.22s-0.62-0.15-0.88-0.26c-0.26-0.1-0.47-0.24-0.62-0.4
				c-0.16-0.16-0.23-0.38-0.23-0.64c0-0.28,0.05-0.51,0.16-0.7c0.11-0.19,0.25-0.34,0.43-0.45c0.18-0.11,0.39-0.19,0.62-0.24
				c0.23-0.05,0.47-0.07,0.71-0.07c0.59,0,1.08,0.14,1.46,0.41c0.38,0.28,0.6,0.72,0.67,1.34h1.08c-0.02-0.47-0.11-0.88-0.27-1.22
				c-0.16-0.34-0.39-0.62-0.67-0.85c-0.28-0.22-0.61-0.39-0.99-0.49C272.1,107.85,271.69,107.8,271.25,107.8L271.25,107.8z"/>
			<polygon points="285.43,108 278.57,108 278.57,108.96 281.43,108.96 281.43,116.57 282.57,116.57 282.57,108.96 285.43,108.96
				285.43,108 			"/>
			<polygon points="293.17,108 292.03,108 292.03,111.68 287.51,111.68 287.51,108 286.37,108 286.37,116.57 287.51,116.57
				287.51,112.64 292.03,112.64 292.03,116.57 293.17,116.57 293.17,108 			"/>
			<polygon points="300.95,108 295.04,108 295.04,116.57 300.99,116.57 300.99,115.61 296.18,115.61 296.18,112.64 300.63,112.64
				300.63,111.68 296.18,111.68 296.18,108.96 300.95,108.96 300.95,108 			"/>
			<polygon points="306.85,108 305.71,108 305.71,116.57 311.38,116.57 311.38,115.61 306.85,115.61 306.85,108 			"/>
			<path d="M315.97,108h-1.26l-3.34,8.57h1.16l0.96-2.58h3.62l0.94,2.58h1.26L315.97,108L315.97,108z M313.85,113.03l1.45-4h0.02
				l1.43,4H313.85L313.85,113.03z"/>
			<path d="M323.26,108h-3.11v8.57h4.14c0.42,0,0.8-0.07,1.12-0.21c0.32-0.14,0.6-0.32,0.82-0.55c0.22-0.23,0.39-0.49,0.5-0.79
				c0.11-0.3,0.17-0.6,0.17-0.91c0-0.53-0.14-0.98-0.42-1.34c-0.28-0.37-0.68-0.61-1.21-0.72v-0.02c0.41-0.16,0.72-0.41,0.94-0.74
				c0.22-0.33,0.33-0.73,0.33-1.18c0-0.43-0.1-0.8-0.29-1.09c-0.2-0.3-0.43-0.53-0.71-0.7c-0.13-0.08-0.28-0.14-0.46-0.18
				c-0.18-0.04-0.37-0.07-0.58-0.09c-0.21-0.02-0.42-0.03-0.63-0.04C323.64,108,323.45,108,323.26,108L323.26,108z M321.29,111.68
				v-2.72h2.28c0.25,0,0.48,0.01,0.7,0.04c0.22,0.03,0.41,0.09,0.58,0.19c0.17,0.1,0.3,0.23,0.4,0.41c0.1,0.18,0.14,0.42,0.14,0.72
				c0,0.46-0.14,0.8-0.43,1.03c-0.28,0.23-0.75,0.34-1.4,0.34H321.29L321.29,111.68z M321.29,115.61v-2.96h2.6
				c0.24,0,0.47,0.02,0.7,0.07c0.22,0.04,0.42,0.12,0.59,0.23c0.17,0.11,0.31,0.25,0.41,0.44s0.16,0.42,0.16,0.7
				c0,0.48-0.14,0.86-0.43,1.13c-0.28,0.27-0.68,0.41-1.18,0.41H321.29L321.29,115.61z"/>
			<polygon points="334.29,108 328.37,108 328.37,116.57 334.33,116.57 334.33,115.61 329.51,115.61 329.51,112.64 333.97,112.64
				333.97,111.68 329.51,111.68 329.51,108.96 334.29,108.96 334.29,108 			"/>
			<polygon points="336.85,108 335.71,108 335.71,116.57 341.38,116.57 341.38,115.61 336.85,115.61 336.85,108 			"/>
		</g>
	</g>
</g>
<g id="Ethanol_Extraction">
	<g>
		<rect x="216.5" y="180.5" class="st1" width="143" height="71"/>
		<path d="M359,181v70H217v-70H359 M360,180H216v72h144V180L360,180z"/>
	</g>
	<rect x="216" y="216" class="st2" width="144" height="9"/>
	<text transform="matrix(1 0 0 1 234.5586 224.5679)" class="st3 st4">THIS IS THE LABEL</text>
</g>
</svg>
